<svg width="20" height="20" fill="none" xmlns="http://www.w3.org/2000/svg"><path d="M5.833 3.333A1.667 1.667 0 017.5 1.666h5a1.666 1.666 0 011.666 1.667V5H17.5a.833.833 0 010 1.667h-.891l-.723 10.118a1.666 1.666 0 01-1.662 1.548h-8.45a1.667 1.667 0 01-1.662-1.548l-.72-10.119H2.5A.833.833 0 112.5 5h3.333V3.333zM7.5 5h5V3.333h-5V5zM5.06 6.667l.715 10h8.449l.714-10H5.061zm3.272 1.666a.833.833 0 01.833.833v5a.833.833 0 01-1.666 0v-5a.833.833 0 01.833-.833zm3.333 0a.833.833 0 01.834.833v5a.834.834 0 01-1.667 0v-5a.834.834 0 01.833-.833z" fill="#222"/></svg>