<svg width="24" height="24" fill="none" xmlns="http://www.w3.org/2000/svg"><path d="M.408 2.88c0 .411.342.763.744.763h3.395l1.607 11.029c.211 1.426.964 2.32 2.42 2.32h11.723a.742.742 0 00.733-.753.742.742 0 00-.733-.753H8.745c-.572 0-.924-.402-1.014-1.015l-.16-1.055h12.746c1.466 0 2.22-.904 2.43-2.34l.804-5.314a3.09 3.09 0 00.04-.381c0-.482-.361-.814-.914-.814H6.285L6.084 3.29c-.1-.773-.382-1.165-1.406-1.165H1.152a.764.764 0 00-.744.754zm7.323 17.367c0 .914.724 1.627 1.638 1.627a1.614 1.614 0 001.627-1.627 1.621 1.621 0 00-1.627-1.628c-.914 0-1.638.724-1.638 1.628zm9.392 0c0 .914.733 1.627 1.637 1.627.914 0 1.637-.713 1.637-1.627 0-.905-.723-1.628-1.637-1.628a1.63 1.63 0 00-1.637 1.628z" fill="#fff"/></svg>