<svg width="29" height="28" fill="none" xmlns="http://www.w3.org/2000/svg"><path fill-rule="evenodd" clip-rule="evenodd" d="M19.494 14.255a.874.874 0 010 1.24l-5.25 5.25a.876.876 0 01-1.239 0l-2.625-2.626a.874.874 0 010-1.239.876.876 0 011.24 0l2.005 2.007 4.63-4.632a.875.875 0 011.24 0z" fill="#fff"/><path d="M14.5 1.75a4.375 4.375 0 014.375 4.375V7h-8.75v-.875A4.375 4.375 0 0114.5 1.75zM20.625 7v-.875a6.125 6.125 0 10-12.25 0V7H2.25v17.5a3.5 3.5 0 003.5 3.5h17.5a3.5 3.5 0 003.5-3.5V7h-6.125zM4 8.75h21V24.5a1.75 1.75 0 01-1.75 1.75H5.75A1.75 1.75 0 014 24.5V8.75z" fill="#fff"/></svg>