<svg width="24" height="24" fill="none" xmlns="http://www.w3.org/2000/svg"><path d="M9.518 1.25a4.381 4.381 0 00-1.228.18c-.396.12-.761.291-1.093.51.362.92 1.286 2.087 2.357 3.084 1.117 1.04 2.399 1.925 3.226 2.324l.01.004.01.005a3.548 3.548 0 011.61 1.684c.2.437.316.895.384 1.36a8.492 8.492 0 011.905-1.133 8.925 8.925 0 00-.583-2.659c-.72-1.89-1.98-3.412-3.407-4.34-1.026-.666-2.126-1.027-3.191-1.02zM5.936 3.231c-.24.372-.436.787-.586 1.237-.498 1.504-.458 3.39.263 5.28a9.44 9.44 0 001.82 2.976c.737.22 1.467.562 2.152 1.024a7.97 7.97 0 011.41 1.212c.134.033.267.06.4.082a11.236 11.236 0 011.797-3.075c.004-.244.002-.48-.01-.704-.031-.61-.129-1.13-.307-1.52a1.72 1.72 0 00-.847-.886l.02.01c-1.073-.517-2.412-1.461-3.644-2.609-.98-.912-1.889-1.934-2.468-3.027zm13.113 6.362c-.633.005-1.302.152-1.98.434-1.446.6-2.897 1.816-3.97 3.506a9.904 9.904 0 00-1.19 2.65c.963 1.616 1.2 3.472.506 5.031.112.16.237.311.374.45 1.015-.875 2.184-1.6 3.015-2.344.454-.407.798-.81.99-1.194a1.72 1.72 0 00.157-1.215l-.006-.028-.004-.028c-.378-2.733.285-4.338 1.25-5.32.776-.79 1.548-1.207 2.081-1.756a3.766 3.766 0 00-1.223-.186zm2.66 1.123c-.78.969-1.74 1.416-2.314 2.001-.66.672-1.116 1.48-.784 3.895.16.822.02 1.61-.307 2.267-.333.667-.83 1.21-1.374 1.697-.826.74-1.778 1.374-2.575 1.992.904.234 1.933.12 2.98-.314 1.445-.6 2.897-1.816 3.97-3.506 1.074-1.69 1.559-3.52 1.488-5.084-.054-1.196-.424-2.22-1.084-2.948zm-3.098 5.896l-.008-.044.01.056-.002-.012zM5.476 13.265c-.862-.007-1.674.182-2.357.554h.013c.405.015.913-.033 1.497.047.585.08 1.27.345 1.789.932.519.588.875 1.42 1.122 2.615l.006.028.004.028c.115.834.646 1.317 1.567 1.768.786.386 1.795.661 2.753.941.429-1.922-.589-4.266-2.757-5.73-1.169-.788-2.45-1.172-3.637-1.183zm-3.8 1.943c-1.185 2.04-.236 5.035 2.348 6.779 2.542 1.716 5.615 1.513 7.094-.267-.864-.246-1.844-.526-2.744-.967-1.16-.57-2.266-1.526-2.489-3.01-.212-1.018-.496-1.56-.732-1.827-.236-.268-.42-.333-.752-.378-.332-.045-.788-.013-1.328-.032-.42-.015-.915-.075-1.398-.298zm4.21 2.534l.002.014-.01-.056.007.042z" fill="#466820"/></svg>