<svg width="24" height="24" fill="none" xmlns="http://www.w3.org/2000/svg"><path d="M4.5 1.5v.75c0 .705.411 1.059 1.2 1.65l.06.045c.711.533 1.74 1.302 1.74 2.805v.75H6v-.75c0-.705-.411-1.059-1.2-1.65l-.06-.045C4.029 4.523 3 3.753 3 2.25V1.5h1.5zm4.5 0v.75c0 .705.411 1.059 1.2 1.65l.06.045C10.971 4.478 12 5.247 12 6.75v.75h-1.5v-.75c0-.705-.411-1.059-1.2-1.65l-.06-.045C8.529 4.523 7.5 3.753 7.5 2.25V1.5H9zm4.5 0v.75c0 .705.411 1.059 1.2 1.65l.06.045c.711.533 1.74 1.302 1.74 2.805v.75H15v-.75c0-.705-.411-1.059-1.2-1.65l-.06-.045C13.029 4.523 12 3.753 12 2.25V1.5h1.5z" fill="#466820"/><path fill-rule="evenodd" clip-rule="evenodd" d="M3 10.5L4.5 9h15.75a3.75 3.75 0 010 7.5h-.939A6.004 6.004 0 0113.5 21H9a6 6 0 01-6-6v-4.5zM18 15v-4.5H4.5V15A4.5 4.5 0 009 19.5h4.5A4.5 4.5 0 0018 15zm1.5-4.5V15h.75a2.25 2.25 0 000-4.5h-.75z" fill="#466820"/></svg>